<!DOCTYPE svg PUBLIC "-//W3C//DTD SVG 1.1//EN" "http://www.w3.org/Graphics/SVG/1.1/DTD/svg11.dtd">
<!-- Uploaded to: SVG Repo, www.svgrepo.com, Transformed by: SVG Repo Mixer Tools -->
<svg fill="#fff" height="800px" width="800px" version="1.1" id="Capa_1" xmlns="http://www.w3.org/2000/svg" xmlns:xlink="http://www.w3.org/1999/xlink" viewBox="0 0 511 511" xml:space="preserve" stroke="#fff">
<g id="SVGRepo_bgCarrier" stroke-width="0"/>
<g id="SVGRepo_tracerCarrier" stroke-linecap="round" stroke-linejoin="round"/>
<g id="SVGRepo_iconCarrier"> <g> <path d="M455.5,0h-96C337.72,0,320,17.72,320,39.5V168H191V39.5C191,17.72,173.28,0,151.5,0h-96C33.72,0,16,17.72,16,39.5v432 c0,21.78,17.72,39.5,39.5,39.5h96c21.78,0,39.5-17.72,39.5-39.5V343h129v128.5c0,21.78,17.72,39.5,39.5,39.5h96 c21.78,0,39.5-17.72,39.5-39.5v-432C495,17.72,477.28,0,455.5,0z M480,471.5c0,13.509-10.991,24.5-24.5,24.5h-96 c-13.509,0-24.5-10.991-24.5-24.5v-136c0-4.142-3.358-7.5-7.5-7.5h-144c-4.142,0-7.5,3.358-7.5,7.5v136 c0,13.509-10.991,24.5-24.5,24.5h-96C41.991,496,31,485.009,31,471.5v-432C31,25.991,41.991,15,55.5,15h96 c13.509,0,24.5,10.991,24.5,24.5v136c0,4.142,3.358,7.5,7.5,7.5h144c4.142,0,7.5-3.358,7.5-7.5v-136 c0-13.509,10.991-24.5,24.5-24.5h96c13.509,0,24.5,10.991,24.5,24.5V471.5z"/> <path d="M455.5,32h-16.001c-4.142,0-7.5,3.358-7.5,7.5s3.358,7.5,7.5,7.5H448v417h-81V335.5c0-21.78-17.72-39.5-39.5-39.5h-144 c-21.78,0-39.5,17.72-39.5,39.5V464H63V47h40.5c4.142,0,7.5-3.358,7.5-7.5s-3.358-7.5-7.5-7.5h-48c-4.142,0-7.5,3.358-7.5,7.5v432 c0,4.142,3.358,7.5,7.5,7.5h96c4.142,0,7.5-3.358,7.5-7.5v-136c0-13.509,10.991-24.5,24.5-24.5h144c13.509,0,24.5,10.991,24.5,24.5 v136c0,4.142,3.358,7.5,7.5,7.5h96c4.142,0,7.5-3.358,7.5-7.5v-432C463,35.358,459.642,32,455.5,32z"/> <path d="M255.499,215h16c4.142,0,7.5-3.358,7.5-7.5s-3.358-7.5-7.5-7.5h-16c-4.142,0-7.5,3.358-7.5,7.5S251.357,215,255.499,215z"/> <path d="M303.499,215H327.5c21.78,0,39.5-17.72,39.5-39.5V47h40.5c4.142,0,7.5-3.358,7.5-7.5s-3.358-7.5-7.5-7.5h-48 c-4.142,0-7.5,3.358-7.5,7.5v136c0,13.509-10.991,24.5-24.5,24.5h-24.001c-4.142,0-7.5,3.358-7.5,7.5S299.357,215,303.499,215z"/> <path d="M135.499,47H144v128.5c0,21.78,17.72,39.5,39.5,39.5h40c4.142,0,7.5-3.358,7.5-7.5s-3.358-7.5-7.5-7.5h-40 c-13.509,0-24.5-10.991-24.5-24.5v-136c0-4.142-3.358-7.5-7.5-7.5h-16.001c-4.142,0-7.5,3.358-7.5,7.5S131.357,47,135.499,47z"/> </g> </g>
</svg>