<!DOCTYPE svg PUBLIC "-//W3C//DTD SVG 1.1//EN" "http://www.w3.org/Graphics/SVG/1.1/DTD/svg11.dtd">
<!-- Uploaded to: SVG Repo, www.svgrepo.com, Transformed by: SVG Repo Mixer Tools -->
<svg fill="#007ff6" width="64px" height="64px" viewBox="0 0 512 512" version="1.1" xml:space="preserve" xmlns="http://www.w3.org/2000/svg" xmlns:xlink="http://www.w3.org/1999/xlink" stroke="#007ff6">
<g id="SVGRepo_bgCarrier" stroke-width="0"/>
<g id="SVGRepo_tracerCarrier" stroke-linecap="round" stroke-linejoin="round"/>
<g id="SVGRepo_iconCarrier"> <g id="A_-_85_x2C__stationary_x2C__pencil_x2C__pen_x2C__notepad_x2C__pin"> <g> <rect height="26.363" width="12.238" x="202.475" y="121.051"/> <rect height="26.363" width="12.238" x="270.75" y="121.051"/> <path d="M132.141,113.495h43.261c1.811,0,3.28-1.468,3.28-3.28c0-1.811-1.469-3.28-3.28-3.28h-43.261V93.978H70.872v32.568h61.269 V113.495z"/> <rect height="26.363" width="42.918" x="221.272" y="121.051"/> <polygon points="279.838,459.908 279.838,429.362 249.259,459.908 "/> <polygon points="81.491,439.841 81.491,459.908 238.881,459.908 238.266,439.841 "/> <path d="M257.992,425.43c-0.051,0.004-0.098,0.018-0.148,0.02l-13.439,0.362l0.331,10.291c0.021,0.15,0.032,0.303,0.032,0.459 c0,0.099-0.021,0.192-0.029,0.289l0.544,17.759l29.684-29.652L257.992,425.43z"/> <path d="M254.476,181.997v-14.619H49.467v265.903h28.744h159.854l-0.324-10.56c-0.004-0.146,0.015-0.287,0.029-0.43 c0.007-0.072,0.004-0.145,0.015-0.215c0.02-0.11,0.059-0.216,0.088-0.323c0.027-0.1,0.044-0.2,0.081-0.295 c0.039-0.103,0.096-0.196,0.145-0.293c0.047-0.095,0.084-0.193,0.14-0.282c0.059-0.094,0.136-0.177,0.205-0.265 c0.063-0.083,0.118-0.171,0.19-0.248l0,0c0,0,0,0,0,0c0.449-0.477,1.025-0.803,1.654-0.947c0.071-0.017,0.146-0.017,0.22-0.027 c0.14-0.023,0.278-0.051,0.421-0.055l13.547-0.377V181.997z M82.393,221.447h79.741c1.812,0,3.28,1.468,3.28,3.28 c0,1.811-1.468,3.28-3.28,3.28H82.393c-1.812,0-3.28-1.469-3.28-3.28C79.113,222.915,80.581,221.447,82.393,221.447z M221.639,393.426H82.393c-1.812,0-3.28-1.469-3.28-3.28c0-1.811,1.468-3.279,3.28-3.279h139.246c1.812,0,3.28,1.469,3.28,3.279 C224.918,391.957,223.451,393.426,221.639,393.426z M79.113,372.155c0-1.812,1.468-3.28,3.28-3.28h79.741 c1.812,0,3.28,1.469,3.28,3.28s-1.468,3.279-3.28,3.279H82.393C80.581,375.435,79.113,373.967,79.113,372.155z M221.639,344.313 H82.393c-1.812,0-3.28-1.469-3.28-3.28c0-1.811,1.468-3.279,3.28-3.279h139.246c1.812,0,3.28,1.469,3.28,3.279 C224.918,342.844,223.451,344.313,221.639,344.313z M79.113,322.954c0-1.813,1.468-3.28,3.28-3.28h79.741 c1.812,0,3.28,1.468,3.28,3.28c0,1.812-1.468,3.279-3.28,3.279H82.393C80.581,326.233,79.113,324.766,79.113,322.954z M221.639,295.11H82.393c-1.812,0-3.28-1.468-3.28-3.28c0-1.812,1.468-3.279,3.28-3.279h139.246c1.812,0,3.28,1.468,3.28,3.279 C224.918,293.643,223.451,295.11,221.639,295.11z M79.113,273.841c0-1.813,1.468-3.28,3.28-3.28h79.741 c1.812,0,3.28,1.468,3.28,3.28c0,1.811-1.468,3.279-3.28,3.279H82.393C80.581,277.12,79.113,275.651,79.113,273.841z M221.639,246.084H82.393c-1.812,0-3.28-1.468-3.28-3.28c0-1.811,1.468-3.28,3.28-3.28h139.246c1.812,0,3.28,1.469,3.28,3.28 C224.918,244.617,223.451,246.084,221.639,246.084z"/> <polygon points="261.035,418.783 279.838,418.26 279.838,185.277 261.035,185.277 "/> <rect height="261.858" width="20.066" x="442.467" y="121.95"/> <path d="M462.484,57.051c0-6.127-4.984-11.113-11.113-11.113h-24.506c-6.105,0-11.072,4.986-11.072,11.113v36.303h46.691V57.051z"/> <rect height="15.477" width="46.691" x="415.793" y="99.914"/> <polygon points="415.793,416.845 439.182,466.062 462.484,416.847 462.484,390.368 415.793,390.368 "/> <rect height="261.858" width="20.113" x="415.793" y="121.95"/> <path d="M309.561,79.23h48.309c1.812,0,3.281,1.468,3.281,3.28c0,1.811-1.47,3.28-3.281,3.28h-48.309v31.759h37.066 c1.813,0,3.28,1.469,3.28,3.28c0,1.812-1.468,3.28-3.28,3.28h-37.066v31.672h48.309c1.812,0,3.281,1.469,3.281,3.28 c0,1.812-1.47,3.28-3.281,3.28h-48.309v31.761h37.066c1.813,0,3.28,1.468,3.28,3.28c0,1.811-1.468,3.28-3.28,3.28h-37.066v31.668 h48.309c1.812,0,3.281,1.468,3.281,3.28c0,1.811-1.47,3.28-3.281,3.28h-48.309v31.76h37.066c1.813,0,3.28,1.468,3.28,3.28 c0,1.812-1.468,3.279-3.28,3.279h-37.066v31.673h48.309c1.812,0,3.281,1.468,3.281,3.28c0,1.811-1.47,3.279-3.281,3.279h-48.309 v31.759h37.066c1.813,0,3.28,1.468,3.28,3.28c0,1.812-1.468,3.279-3.28,3.279h-37.066v31.669h48.309 c1.812,0,3.281,1.469,3.281,3.279c0,1.812-1.47,3.28-3.281,3.28h-48.309v31.76h37.066c1.813,0,3.28,1.47,3.28,3.28 s-1.468,3.28-3.28,3.28h-37.066v29.601h71.023V50.529h-71.023V79.23z"/> <path d="M269.361,46.399h-12.282h-10.746h-43.001c-8.7,0-15.777,7.081-15.777,15.782c0,8.653,7.077,15.693,15.777,15.693h29.329 h24.418h8.499c6.028,0,10.933-4.9,10.933-10.924c0-6.025-4.904-10.928-10.933-10.928h-32.917c-1.812,0-3.28,1.468-3.28,3.28 c0,1.811,1.468,3.28,3.28,3.28h32.917c2.371,0,4.373,2,4.373,4.368c0,2.407-1.961,4.364-4.373,4.364h-8.499h-24.418h-29.329 c-5.083,0-9.218-4.097-9.218-9.133c0-5.085,4.134-9.223,9.218-9.223h43.001h10.746h12.282c8.209,0,14.887,6.681,14.887,14.891 s-6.678,14.89-14.887,14.89H191.01c-1.811,0-3.279,1.469-3.279,3.28c0,1.812,1.469,3.28,3.279,3.28h78.352 c11.825,0,21.445-9.623,21.445-21.45C290.807,56.021,281.187,46.399,269.361,46.399z"/> </g> </g> <g id="Layer_1"/> </g>
</svg>